<?xml version="1.0" encoding="UTF-8"?>
<svg width="700pt" height="700pt" version="1.1" viewBox="0 0 700 700" xmlns="http://www.w3.org/2000/svg" xmlns:xlink="http://www.w3.org/1999/xlink">
 <defs>
  <symbol id="t" overflow="visible">
   <path d="m25.812-1.5469c-1.3359 0.6875-2.7266 1.2109-4.1719 1.5625-1.4375 0.35156-2.9375 0.53125-4.5 0.53125-4.6797 0-8.3867-1.3047-11.125-3.9219-2.7305-2.6133-4.0938-6.1602-4.0938-10.641 0-4.4883 1.3633-8.0391 4.0938-10.656 2.7383-2.6133 6.4453-3.9219 11.125-3.9219 1.5625 0 3.0625 0.17969 4.5 0.53125 1.4453 0.34375 2.8359 0.85938 4.1719 1.5469v5.8125c-1.3438-0.90625-2.668-1.5703-3.9688-2-1.3047-0.42578-2.6797-0.64062-4.125-0.64062-2.5859 0-4.6172 0.82812-6.0938 2.4844-1.4805 1.6562-2.2188 3.9375-2.2188 6.8438 0 2.8984 0.73828 5.1719 2.2188 6.8281 1.4766 1.6562 3.5078 2.4844 6.0938 2.4844 1.4453 0 2.8203-0.21094 4.125-0.64062 1.3008-0.42578 2.625-1.0977 3.9688-2.0156z"/>
  </symbol>
  <symbol id="c" overflow="visible">
   <path d="m18.891-15.328c-0.59375-0.28125-1.1836-0.48438-1.7656-0.60938-0.58594-0.13281-1.168-0.20312-1.75-0.20312-1.7305 0-3.0625 0.55859-4 1.6719-0.9375 1.1055-1.4062 2.6953-1.4062 4.7656v9.7031h-6.7344v-21.078h6.7344v3.4688c0.86328-1.375 1.8594-2.3789 2.9844-3.0156 1.125-0.63281 2.4688-0.95312 4.0312-0.95312 0.22656 0 0.47266 0.011719 0.73438 0.03125 0.26953 0.023437 0.65625 0.0625 1.1562 0.125z"/>
  </symbol>
  <symbol id="a" overflow="visible">
   <path d="m24.266-10.594v1.9219h-15.75c0.16406 1.5859 0.73828 2.7734 1.7188 3.5625 0.97656 0.78125 2.3477 1.1719 4.1094 1.1719 1.4141 0 2.8633-0.20703 4.3438-0.625 1.4883-0.41406 3.0156-1.0508 4.5781-1.9062v5.1875c-1.5859 0.60547-3.1719 1.0586-4.7656 1.3594-1.5938 0.3125-3.1875 0.46875-4.7812 0.46875-3.8125 0-6.7773-0.96875-8.8906-2.9062-2.1172-1.9375-3.1719-4.6562-3.1719-8.1562 0-3.4375 1.0352-6.1406 3.1094-8.1094 2.082-1.9688 4.9414-2.9531 8.5781-2.9531 3.3125 0 5.957 1 7.9375 3 1.9883 1.9922 2.9844 4.6523 2.9844 7.9844zm-6.9219-2.2344c0-1.2812-0.375-2.3125-1.125-3.0938-0.74219-0.78906-1.7148-1.1875-2.9219-1.1875-1.3047 0-2.3594 0.37109-3.1719 1.1094-0.8125 0.73047-1.3242 1.7891-1.5312 3.1719z"/>
  </symbol>
  <symbol id="g" overflow="visible">
   <path d="m12.688-9.4844c-1.4062 0-2.4648 0.24219-3.1719 0.71875-0.71094 0.48047-1.0625 1.1836-1.0625 2.1094 0 0.85547 0.28125 1.5234 0.84375 2 0.57031 0.48047 1.3672 0.71875 2.3906 0.71875 1.2578 0 2.3203-0.45312 3.1875-1.3594 0.875-0.90625 1.3125-2.0391 1.3125-3.4062v-0.78125zm10.281-2.5312v12.016h-6.7812v-3.125c-0.90625 1.2812-1.9297 2.2148-3.0625 2.7969-1.125 0.58203-2.4961 0.875-4.1094 0.875-2.1875 0-3.9648-0.63281-5.3281-1.9062-1.3555-1.2812-2.0312-2.9375-2.0312-4.9688 0-2.4688 0.84766-4.2734 2.5469-5.4219 1.6953-1.1562 4.3633-1.7344 8-1.7344h3.9844v-0.53125c0-1.0625-0.42188-1.8438-1.2656-2.3438s-2.1562-0.75-3.9375-0.75c-1.4375 0-2.7812 0.14844-4.0312 0.4375-1.2422 0.29297-2.3906 0.72656-3.4531 1.2969v-5.125c1.4375-0.35156 2.8828-0.61719 4.3438-0.79688 1.457-0.1875 2.9102-0.28125 4.3594-0.28125 3.8008 0 6.5469 0.75 8.2344 2.25s2.5312 3.9375 2.5312 7.3125z"/>
  </symbol>
  <symbol id="b" overflow="visible">
   <path d="m10.594-27.047v5.9688h6.9375v4.8281h-6.9375v8.9375c0 0.98047 0.19141 1.6406 0.57812 1.9844 0.39453 0.34375 1.1641 0.51562 2.3125 0.51562h3.4688v4.8125h-5.7812c-2.6562 0-4.543-0.55078-5.6562-1.6562-1.1055-1.1133-1.6562-3-1.6562-5.6562v-8.9375h-3.3438v-4.8281h3.3438v-5.9688z"/>
  </symbol>
  <symbol id="l" overflow="visible">
   <path d="m17.578-17.984v-11.297h6.7656v29.281h-6.7656v-3.0469c-0.92969 1.2422-1.9531 2.1523-3.0781 2.7344-1.1172 0.57031-2.4062 0.85938-3.875 0.85938-2.5938 0-4.7266-1.0312-6.3906-3.0938-1.668-2.0625-2.5-4.7188-2.5-7.9688s0.83203-5.9062 2.5-7.9688c1.6641-2.0625 3.7969-3.0938 6.3906-3.0938 1.457 0 2.75 0.29297 3.875 0.875 1.125 0.58594 2.1484 1.4922 3.0781 2.7188zm-4.4531 13.641c1.4453 0 2.5508-0.52344 3.3125-1.5781 0.75781-1.0508 1.1406-2.582 1.1406-4.5938 0-2.0078-0.38281-3.5391-1.1406-4.5938-0.76172-1.0508-1.8672-1.5781-3.3125-1.5781-1.4297 0-2.5234 0.52734-3.2812 1.5781-0.76172 1.0547-1.1406 2.5859-1.1406 4.5938 0 2.0117 0.37891 3.543 1.1406 4.5938 0.75781 1.0547 1.8516 1.5781 3.2812 1.5781z"/>
  </symbol>
  <symbol id="k" overflow="visible">
   <path d="m14.453-4.3438c1.4375 0 2.5352-0.52344 3.2969-1.5781 0.75781-1.0508 1.1406-2.582 1.1406-4.5938 0-2.0078-0.38281-3.5391-1.1406-4.5938-0.76172-1.0508-1.8594-1.5781-3.2969-1.5781-1.4492 0-2.5586 0.53125-3.3281 1.5938-0.77344 1.0547-1.1562 2.5781-1.1562 4.5781 0 1.9922 0.38281 3.5156 1.1562 4.5781 0.76953 1.0625 1.8789 1.5938 3.3281 1.5938zm-4.4844-13.641c0.92578-1.2266 1.9531-2.1328 3.0781-2.7188 1.1328-0.58203 2.4375-0.875 3.9062-0.875 2.5938 0 4.7227 1.0312 6.3906 3.0938 1.6641 2.0625 2.5 4.7188 2.5 7.9688s-0.83594 5.9062-2.5 7.9688c-1.668 2.0625-3.7969 3.0938-6.3906 3.0938-1.4688 0-2.7734-0.29297-3.9062-0.875-1.125-0.58203-2.1523-1.4883-3.0781-2.7188v3.0469h-6.7344v-29.281h6.7344z"/>
  </symbol>
  <symbol id="j" overflow="visible">
   <path d="m0.46875-21.078h6.7344l5.6719 14.312 4.8125-14.312h6.7344l-8.8594 23.078c-0.89844 2.3438-1.9375 3.9766-3.125 4.9062-1.1797 0.9375-2.7422 1.4062-4.6875 1.4062h-3.8906v-4.4219h2.1094c1.1328 0 1.9609-0.18359 2.4844-0.54688 0.51953-0.36719 0.92578-1.0156 1.2188-1.9531l0.1875-0.57812z"/>
  </symbol>
  <symbol id="i" overflow="visible">
   <path d="m3.5312-28.094h7.25v25.359c0 3.5-0.95312 6.1133-2.8594 7.8438-1.8984 1.7383-4.7734 2.6094-8.625 2.6094h-1.4531v-5.4844h1.125c1.5 0 2.6328-0.42188 3.4062-1.2656 0.76953-0.83594 1.1562-2.0664 1.1562-3.7031z"/>
  </symbol>
  <symbol id="f" overflow="visible">
   <path d="m19.703-20.406v5.1094c-1.4492-0.60156-2.8438-1.0547-4.1875-1.3594-1.3359-0.30078-2.6016-0.45312-3.7969-0.45312-1.2812 0-2.2344 0.16406-2.8594 0.48438-0.61719 0.32422-0.92188 0.82031-0.92188 1.4844 0 0.53125 0.23438 0.94531 0.70312 1.2344 0.46875 0.29297 1.3125 0.50781 2.5312 0.64062l1.1875 0.17188c3.4453 0.4375 5.7656 1.1641 6.9531 2.1719 1.1953 1 1.7969 2.5742 1.7969 4.7188 0 2.2422-0.82812 3.9297-2.4844 5.0625-1.6562 1.125-4.125 1.6875-7.4062 1.6875-1.3984 0-2.8398-0.10938-4.3281-0.32812-1.4805-0.21875-3.0078-0.54688-4.5781-0.98438v-5.125c1.3438 0.65625 2.7188 1.1484 4.125 1.4688 1.4141 0.32422 2.8516 0.48438 4.3125 0.48438 1.3125 0 2.3008-0.17578 2.9688-0.53125 0.66406-0.36328 1-0.90625 1-1.625 0-0.60156-0.23047-1.0508-0.6875-1.3438-0.46094-0.30078-1.375-0.53125-2.75-0.6875l-1.1719-0.15625c-3-0.375-5.1055-1.0664-6.3125-2.0781-1.1992-1.0195-1.7969-2.5664-1.7969-4.6406 0-2.2266 0.75781-3.8789 2.2812-4.9531 1.5312-1.082 3.8789-1.625 7.0469-1.625 1.2383 0 2.5391 0.09375 3.9062 0.28125 1.375 0.1875 2.8633 0.48438 4.4688 0.89062z"/>
  </symbol>
  <symbol id="e" overflow="visible">
   <path d="m3.0156-8.2031v-12.875h6.7656v2.1094c0 1.1484-0.007812 2.5859-0.015625 4.3125-0.011719 1.7188-0.015625 2.8672-0.015625 3.4375 0 1.6992 0.039062 2.9219 0.125 3.6719 0.09375 0.74219 0.24219 1.2812 0.45312 1.625 0.28125 0.4375 0.64062 0.77734 1.0781 1.0156 0.44531 0.24219 0.95703 0.35938 1.5312 0.35938 1.4062 0 2.5078-0.53516 3.3125-1.6094 0.80078-1.082 1.2031-2.5859 1.2031-4.5156v-10.406h6.7344v21.078h-6.7344v-3.0469c-1.0117 1.2305-2.0859 2.1367-3.2188 2.7188-1.1367 0.58203-2.3867 0.875-3.75 0.875-2.4375 0-4.293-0.74219-5.5625-2.2344-1.2734-1.5-1.9062-3.6719-1.9062-6.5156z"/>
  </symbol>
  <symbol id="h" overflow="visible">
   <path d="m3.5312-28.094h12.031c3.5703 0 6.3125 0.79688 8.2188 2.3906 1.9141 1.5859 2.875 3.8438 2.875 6.7812 0 2.9492-0.96094 5.2148-2.875 6.7969-1.9062 1.5859-4.6484 2.375-8.2188 2.375h-4.7812v9.75h-7.25zm7.25 5.25v7.8438h4c1.4062 0 2.4883-0.33594 3.25-1.0156 0.76953-0.6875 1.1562-1.6562 1.1562-2.9062 0-1.2578-0.38672-2.2266-1.1562-2.9062-0.76172-0.67578-1.8438-1.0156-3.25-1.0156z"/>
  </symbol>
  <symbol id="s" overflow="visible">
   <path d="m17.109-29.281v4.4219h-3.7344c-0.94922 0-1.6172 0.17969-2 0.53125-0.375 0.34375-0.5625 0.9375-0.5625 1.7812v1.4688h5.7656v4.8281h-5.7656v16.25h-6.7344v-16.25h-3.3438v-4.8281h3.3438v-1.4688c0-2.2891 0.64062-3.9844 1.9219-5.0781 1.2812-1.1016 3.2656-1.6562 5.9531-1.6562z"/>
  </symbol>
  <symbol id="d" overflow="visible">
   <path d="m13.266-16.766c-1.4922 0-2.6328 0.53906-3.4219 1.6094-0.78125 1.0742-1.1719 2.6211-1.1719 4.6406 0 2.0234 0.39062 3.5703 1.1719 4.6406 0.78906 1.0742 1.9297 1.6094 3.4219 1.6094 1.4688 0 2.5859-0.53516 3.3594-1.6094 0.78125-1.0703 1.1719-2.6172 1.1719-4.6406 0-2.0195-0.39062-3.5664-1.1719-4.6406-0.77344-1.0703-1.8906-1.6094-3.3594-1.6094zm0-4.8125c3.625 0 6.4531 0.98047 8.4844 2.9375 2.0391 1.9609 3.0625 4.668 3.0625 8.125 0 3.4609-1.0234 6.168-3.0625 8.125-2.0312 1.9609-4.8594 2.9375-8.4844 2.9375-3.6367 0-6.4805-0.97656-8.5312-2.9375-2.0547-1.957-3.0781-4.6641-3.0781-8.125 0-3.457 1.0234-6.1641 3.0781-8.125 2.0508-1.957 4.8945-2.9375 8.5312-2.9375z"/>
  </symbol>
  <symbol id="r" overflow="visible">
   <path d="m22.766-17.578c0.85156-1.3008 1.8633-2.2891 3.0312-2.9688 1.1758-0.6875 2.4688-1.0312 3.875-1.0312 2.4141 0 4.2539 0.74609 5.5156 2.2344 1.2695 1.4922 1.9062 3.6641 1.9062 6.5156v12.828h-6.7656v-10.984c0.007813-0.16406 0.015625-0.33594 0.015625-0.51562 0.007812-0.17578 0.015625-0.42578 0.015625-0.75 0-1.4883-0.21875-2.5664-0.65625-3.2344-0.4375-0.67578-1.1484-1.0156-2.125-1.0156-1.2812 0-2.2734 0.52734-2.9688 1.5781-0.6875 1.0547-1.0469 2.5781-1.0781 4.5781v10.344h-6.7656v-10.984c0-2.332-0.20312-3.832-0.60938-4.5-0.39844-0.67578-1.1094-1.0156-2.1406-1.0156-1.293 0-2.293 0.53125-3 1.5938-0.69922 1.0547-1.0469 2.5703-1.0469 4.5469v10.359h-6.7656v-21.078h6.7656v3.0938c0.83203-1.1953 1.7852-2.0938 2.8594-2.6875 1.0703-0.60156 2.2539-0.90625 3.5469-0.90625 1.4453 0 2.7266 0.35547 3.8438 1.0625 1.125 0.69922 1.9727 1.6797 2.5469 2.9375z"/>
  </symbol>
  <symbol id="q" overflow="visible">
   <path d="m24.422-12.828v12.828h-6.7812v-9.7812c0-1.8438-0.042969-3.1094-0.125-3.7969-0.074219-0.69531-0.21094-1.207-0.40625-1.5312-0.27344-0.4375-0.63281-0.77344-1.0781-1.0156-0.44922-0.25-0.96484-0.375-1.5469-0.375-1.4062 0-2.5117 0.54297-3.3125 1.625-0.80469 1.0859-1.2031 2.5898-1.2031 4.5156v10.359h-6.7344v-29.281h6.7344v11.297c1.0195-1.2266 2.0977-2.1328 3.2344-2.7188 1.1445-0.58203 2.4062-0.875 3.7812-0.875 2.4375 0 4.2852 0.74609 5.5469 2.2344 1.2578 1.4922 1.8906 3.6641 1.8906 6.5156z"/>
  </symbol>
  <symbol id="p" overflow="visible">
   <path d="m3.5312-28.094h8.0938l10.219 19.266v-19.266h6.8594v28.094h-8.0781l-10.219-19.266v19.266h-6.875z"/>
  </symbol>
  <symbol id="o" overflow="visible">
   <path d="m24.422-12.828v12.828h-6.7812v-9.8281c0-1.8125-0.042969-3.0625-0.125-3.75-0.074219-0.69531-0.21094-1.207-0.40625-1.5312-0.27344-0.4375-0.63281-0.77344-1.0781-1.0156-0.44922-0.25-0.96484-0.375-1.5469-0.375-1.4062 0-2.5117 0.54297-3.3125 1.625-0.80469 1.0859-1.2031 2.5898-1.2031 4.5156v10.359h-6.7344v-21.078h6.7344v3.0938c1.0195-1.2266 2.0977-2.1328 3.2344-2.7188 1.1445-0.58203 2.4062-0.875 3.7812-0.875 2.4375 0 4.2852 0.74609 5.5469 2.2344 1.2578 1.4922 1.8906 3.6641 1.8906 6.5156z"/>
  </symbol>
  <symbol id="n" overflow="visible">
   <path d="m3.2344-21.078h6.7344v20.703c0 2.8203-0.67969 4.9727-2.0312 6.4531-1.3555 1.4883-3.3203 2.2344-5.8906 2.2344h-3.3281v-4.4219h1.1719c1.2812 0 2.1562-0.29297 2.625-0.875 0.47656-0.57422 0.71875-1.7031 0.71875-3.3906zm0-8.2031h6.7344v5.5h-6.7344z"/>
  </symbol>
  <symbol id="m" overflow="visible">
   <path d="m20.266-20.406v5.4844c-0.91797-0.625-1.8398-1.0859-2.7656-1.3906-0.91797-0.30078-1.8711-0.45312-2.8594-0.45312-1.8867 0-3.3555 0.55469-4.4062 1.6562-1.043 1.0938-1.5625 2.625-1.5625 4.5938s0.51953 3.5078 1.5625 4.6094c1.0508 1.0938 2.5195 1.6406 4.4062 1.6406 1.0508 0 2.0508-0.15625 3-0.46875 0.94531-0.32031 1.8203-0.78906 2.625-1.4062v5.5156c-1.0547 0.39844-2.125 0.6875-3.2188 0.875-1.0859 0.19531-2.168 0.29688-3.25 0.29688-3.8047 0-6.7773-0.97266-8.9219-2.9219-2.1484-1.957-3.2188-4.6719-3.2188-8.1406 0-3.4766 1.0703-6.1914 3.2188-8.1406 2.1445-1.9453 5.1172-2.9219 8.9219-2.9219 1.1016 0 2.1875 0.10156 3.25 0.29688 1.0703 0.1875 2.1445 0.48047 3.2188 0.875z"/>
  </symbol>
 </defs>
 <g>
  <path d="m518.8 146.45c0-27.438 22.273-49.637 49.637-49.637 27.363 0 49.637 22.199 49.637 49.637s-22.273 49.637-49.637 49.637c-27.363 0-49.637-22.199-49.637-49.637zm-47.867 82.703c0-22.969 22.352-37.922 55.496-40.852 11.332 11.254 26.824 18.191 44.012 18.191 10.789 0 20.965-2.6992 29.828-7.5547 2.543 0.69531 5.4727 1.6172 8.9414 2.6211 46.398 17.805 65.898 44.703 65.898 73.066v45.859c-91.336-38.922-133.73-60.426-204.1-65.668zm-169.8-110.22c0-27.438 22.273-49.637 49.637-49.637 27.438 0 49.637 22.273 49.637 49.637 0 27.438-22.273 49.637-49.637 49.637-27.359 0.078125-49.637-22.199-49.637-49.637zm-59.656 110.37c0-27.363 31.68-50.562 75.535-58.578 9.3242 5.7031 20.348 8.9414 32.141 8.9414 12.102 0 23.355-3.4688 32.836-9.4023 45.242 7.5547 78.23 31.137 78.23 59.039v24.434c-32.68-5.3945-69.832-8.4766-109.37-8.4766-39.461 0-76.691 3.082-109.37 8.4766zm-59.191-82.855c0 27.438-22.273 49.637-49.637 49.637-27.363 0-49.637-22.199-49.637-49.637s22.273-49.637 49.637-49.637c27.359 0 49.637 22.199 49.637 49.637zm47.863 82.703v25.668c-70.371 5.2422-112.84 26.746-204.1 65.668v-45.859c0-28.363 19.5-55.262 65.898-73.066 3.4688-1.0781 6.3984-2.0039 8.9414-2.6211 8.8633 4.7773 19.039 7.5547 29.828 7.5547 17.188 0 32.758-6.9375 44.012-18.191 33.066 3.0039 55.418 17.879 55.418 40.848zm-15.801 246.1v-10.945c0-34.453 40.234-63.586 95.652-73.375 11.484 8.2461 25.59 13.027 40.773 13.027 15.184 0 29.289-4.8555 40.773-13.027 55.418 9.7891 95.652 38.922 95.652 73.375v10.715c118.46-17.648 203.4-57.5 212.04-104.59 0.46094 2.6211 0.69531 5.2422 0.69531 7.9375 0 0.76953 0 1.4648-0.078126 2.2344 0 0.76953 0.078126 1.4648 0.078126 2.2344s0 1.4648-0.078126 2.2344c0 0.76953 0.078126 1.4648 0.078126 2.2344s0 1.4648-0.078126 2.2344c0 0.76953 0.078126 1.4648 0.078126 2.2344s0 1.4648-0.078126 2.2344c0 0.76953 0.078126 1.4648 0.078126 2.2344 0 67.52-156.7 122.24-350 122.24-193.23-0.074219-349.93-54.797-349.93-122.31 0-0.76953 0-1.4648 0.078125-2.2344-0.078125-0.77344-0.078125-1.4688-0.078125-2.2383s0-1.4648 0.078125-2.2344c-0.078125-0.69531-0.078125-1.4648-0.078125-2.2344s0-1.4648 0.078125-2.2344c-0.078125-0.69531-0.078125-1.4648-0.078125-2.1602 0-0.76953 0-1.4648 0.078125-2.2344-0.078125-0.77344-0.078125-1.4648-0.078125-2.2344 0-2.6992 0.23047-5.3164 0.69531-7.9375 8.707 47.32 94.34 87.246 213.65 104.82zm74.453-146.6c0-34.223 27.746-61.969 61.969-61.969 34.223 0 61.969 27.746 61.969 61.969s-27.746 61.969-61.969 61.969c-34.219 0-61.969-27.746-61.969-61.969z"/>
  <use y="634.03125" xlink:href="#t"/>
  <use x="28.28125" y="634.03125" xlink:href="#c"/>
  <use x="47.289063" y="634.03125" xlink:href="#a"/>
  <use x="73.425781" y="634.03125" xlink:href="#g"/>
  <use x="99.429688" y="634.03125" xlink:href="#b"/>
  <use x="117.851562" y="634.03125" xlink:href="#a"/>
  <use x="143.988281" y="634.03125" xlink:href="#l"/>
  <use x="184.992188" y="634.03125" xlink:href="#k"/>
  <use x="212.578125" y="634.03125" xlink:href="#j"/>
  <use x="251.117188" y="634.03125" xlink:href="#i"/>
  <use x="265.457031" y="634.03125" xlink:href="#a"/>
  <use x="291.59375" y="634.03125" xlink:href="#f"/>
  <use x="314.53125" y="634.03125" xlink:href="#e"/>
  <use x="341.964844" y="634.03125" xlink:href="#f"/>
  <use x="378.320312" y="634.03125" xlink:href="#h"/>
  <use x="406.566406" y="634.03125" xlink:href="#e"/>
  <use x="434" y="634.03125" xlink:href="#a"/>
  <use x="460.140625" y="634.03125" xlink:href="#c"/>
  <use x="479.144531" y="634.03125" xlink:href="#b"/>
  <use x="497.566406" y="634.03125" xlink:href="#g"/>
  <use x="523.570312" y="634.03125" xlink:href="#f"/>
  <use y="672.570312" xlink:href="#s"/>
  <use x="16.765625" y="672.570312" xlink:href="#c"/>
  <use x="35.773438" y="672.570312" xlink:href="#d"/>
  <use x="62.246094" y="672.570312" xlink:href="#r"/>
  <use x="115.820312" y="672.570312" xlink:href="#b"/>
  <use x="134.242188" y="672.570312" xlink:href="#q"/>
  <use x="161.679688" y="672.570312" xlink:href="#a"/>
  <use x="201.230469" y="672.570312" xlink:href="#p"/>
  <use x="233.484375" y="672.570312" xlink:href="#d"/>
  <use x="259.960938" y="672.570312" xlink:href="#e"/>
  <use x="287.394531" y="672.570312" xlink:href="#o"/>
  <use x="328.25" y="672.570312" xlink:href="#h"/>
  <use x="356.492188" y="672.570312" xlink:href="#c"/>
  <use x="375.5" y="672.570312" xlink:href="#d"/>
  <use x="401.972656" y="672.570312" xlink:href="#n"/>
  <use x="415.183594" y="672.570312" xlink:href="#a"/>
  <use x="441.320312" y="672.570312" xlink:href="#m"/>
  <use x="464.164062" y="672.570312" xlink:href="#b"/>
 </g>
</svg>
